<?xml version="1.0" encoding="utf-8"?>
<!-- Generator: Adobe Illustrator 16.0.4, SVG Export Plug-In . SVG Version: 6.00 Build 0)  -->
<!DOCTYPE svg PUBLIC "-//W3C//DTD SVG 1.1//EN" "http://www.w3.org/Graphics/SVG/1.1/DTD/svg11.dtd">
<svg version="1.1" id="Layer_1" xmlns="http://www.w3.org/2000/svg" xmlns:xlink="http://www.w3.org/1999/xlink" x="0px" y="0px"
	 width="285px" height="104.333px" viewBox="0 0 285 104.333" enable-background="new 0 0 285 104.333" xml:space="preserve">
<g>
	<g>
		<path fill="#363436" d="M242.602,33.56c3.732-4.481,9.174-6.724,16.328-6.724c3.381,0,6.295,0.529,8.758,1.585
			c2.459,1.056,4.52,2.464,6.174,4.223c1.662,1.759,2.887,3.828,3.688,6.192c0.797,2.365,1.193,4.897,1.193,7.58
			c0,0.645-0.012,1.268-0.049,1.875c-0.039,0.608-0.092,1.234-0.164,1.871c-3.447-0.068-6.861-0.145-10.244-0.217
			c-3.385-0.068-6.795-0.108-10.244-0.108c-2.109,0-4.197,0.04-6.271,0.108c-2.076,0.072-4.164,0.149-6.266,0.217
			c-0.076,0.321-0.113,0.807-0.113,1.445v1.249c0,2.505,0.367,4.847,1.1,7.03c0.738,2.177,1.801,4.052,3.209,5.625
			c1.41,1.571,3.135,2.822,5.18,3.754c2.049,0.93,4.41,1.396,7.096,1.396c1.281,0,2.588-0.182,3.93-0.537
			c1.344-0.354,2.654-0.834,3.93-1.446c1.277-0.611,2.48-1.337,3.598-2.171c1.119-0.837,2.092-1.738,2.924-2.705l0.477,0.289
			l-0.57,4.707c-1.918,1.535-4.297,2.844-7.137,3.937c-2.848,1.082-5.793,1.632-8.859,1.632c-3.443,0-6.592-0.527-9.434-1.586
			c-2.84-1.056-5.297-2.594-7.373-4.609c-2.074-2.016-3.67-4.404-4.787-7.153c-1.117-2.755-1.676-5.729-1.676-8.929
			C236.996,44.217,238.861,38.039,242.602,33.56z M253.137,31.514c-1.629,1.091-2.969,2.443-4.021,4.072
			c-1.055,1.628-1.85,3.419-2.395,5.367c-0.539,1.946-0.879,3.783-1.004,5.506c1.98,0.074,4.039,0.142,6.18,0.218
			c2.137,0.071,4.229,0.104,6.271,0.104c2.102,0,4.242-0.033,6.414-0.104c2.17-0.077,4.273-0.145,6.314-0.218
			c0-1.723-0.143-3.543-0.428-5.464c-0.289-1.911-0.861-3.701-1.723-5.362c-0.863-1.659-2.061-3.028-3.592-4.119
			c-1.531-1.083-3.541-1.625-6.031-1.625C256.762,29.889,254.766,30.432,253.137,31.514z M216.512,36.692
			c-0.098-3.165-0.307-6.122-0.625-8.877c1.811,0.32,3.262,0.479,4.361,0.479c1.098,0,2.553-0.159,4.361-0.479
			c-0.365,2.755-0.6,5.712-0.707,8.877c-0.107,3.166-0.168,6.185-0.168,9.066v9.975c0,2.877,0.061,5.9,0.168,9.064
			c0.107,3.166,0.342,6.025,0.707,8.588c-1.488-0.15-2.941-0.223-4.361-0.223c-1.422,0-2.875,0.072-4.361,0.223
			c0.318-2.562,0.527-5.422,0.625-8.588c0.09-3.164,0.143-6.188,0.143-9.064v-9.975C216.654,42.877,216.602,39.858,216.512,36.692z
			 M216.781,7.677c0.967-0.961,2.119-1.442,3.467-1.442c1.344,0,2.498,0.481,3.465,1.442c0.963,0.958,1.439,2.12,1.439,3.462
			c0,1.345-0.477,2.5-1.439,3.462c-0.967,0.962-2.121,1.444-3.465,1.444c-1.348,0-2.5-0.482-3.467-1.444
			c-0.957-0.963-1.439-2.117-1.439-3.462C215.342,9.797,215.824,8.635,216.781,7.677z M161.629,21.541
			c-0.029-2.558-0.08-5.082-0.137-7.579c-0.07-2.497-0.146-4.88-0.246-7.154c-0.092-2.271-0.201-4.206-0.334-5.807
			c1.791,0.365,3.225,0.542,4.309,0.542c1.086,0,2.52-0.177,4.309-0.542c-0.129,1.602-0.24,3.521-0.338,5.764
			c-0.094,2.237-0.17,4.592-0.238,7.053c-0.062,2.46-0.109,4.947-0.139,7.443c-0.031,2.498-0.049,4.802-0.049,6.907l-0.006,7.295
			h0.193c1.797-2.746,3.941-4.875,6.441-6.371c2.504-1.505,5.484-2.255,8.949-2.255c1.789,0,3.598,0.253,5.426,0.768
			c1.828,0.515,3.477,1.395,4.951,2.637c1.479,1.249,2.68,2.945,3.605,5.088c0.936,2.142,1.395,4.882,1.395,8.207
			c0,2.754-0.068,5.58-0.213,8.493c-0.146,2.914-0.219,6-0.219,9.26v6.24c0,1.025,0.016,2.036,0.051,3.023
			c0.037,0.991,0.096,1.936,0.168,2.834c-1.301-0.15-2.66-0.223-4.086-0.223c-1.359,0-2.693,0.072-3.984,0.223
			c0.129-3.328,0.268-6.75,0.424-10.262c0.156-3.523,0.232-7.133,0.232-10.842v-5.852c0-4.793-0.926-8.425-2.771-10.888
			c-1.855-2.461-4.396-3.691-7.652-3.691c-4.465,0-7.73,1.38-9.797,4.125c-2.074,2.749-3.107,6.617-3.107,11.605
			c0,1.79,0.018,3.866,0.049,6.237c0.029,2.365,0.076,4.744,0.139,7.143c0.068,2.4,0.145,4.716,0.238,6.953
			c0.098,2.238,0.209,4.062,0.338,5.471c-1.469-0.15-2.904-0.223-4.309-0.223c-1.402,0-2.836,0.072-4.309,0.223
			c0.133-1.475,0.242-3.328,0.334-5.568c0.1-2.24,0.176-4.608,0.246-7.109c0.057-2.492,0.107-5.018,0.137-7.584
			c0.031-2.553,0.049-4.925,0.049-7.099V28.648C161.678,26.474,161.66,24.107,161.629,21.541z M139.953,40.854
			c-0.798-2.5-1.824-4.498-3.076-5.996c-1.253-1.509-2.679-2.548-4.279-3.124c-1.599-0.574-3.168-0.865-4.707-0.865
			c-2.556,0-4.753,0.544-6.582,1.631c-1.823,1.087-3.314,2.547-4.468,4.365c-1.155,1.828-1.984,3.974-2.498,6.434
			c-0.518,2.466-0.771,5.073-0.771,7.828c0,13.312,4.677,19.968,14.03,19.968c2.305,0,4.309-0.53,6.011-1.585
			c1.694-1.059,3.1-2.527,4.226-4.415c1.118-1.887,1.948-4.097,2.493-6.626c0.55-2.525,0.82-5.232,0.82-8.117
			C141.153,46.521,140.755,43.351,139.953,40.854z M106.441,48.605c-0.038-2.558-0.076-5.098-0.146-7.625
			c-0.06-2.521-0.139-4.936-0.238-7.236c-0.093-2.301-0.207-4.287-0.333-5.95c1.785,0.324,3.221,0.482,4.303,0.482
			c1.089,0,2.524-0.158,4.31-0.482c-0.252,1.664-0.448,3.262-0.572,4.795c-0.131,1.534-0.193,3.068-0.193,4.603h0.193
			c0.449-1.023,1.088-2.125,1.918-3.312c0.831-1.178,1.903-2.3,3.213-3.349c1.31-1.058,2.894-1.937,4.748-2.639
			c1.859-0.701,3.967-1.057,6.337-1.057c2.424,0,4.826,0.467,7.191,1.393c2.367,0.926,4.462,2.352,6.287,4.272
			c1.815,1.919,3.291,4.365,4.41,7.348c1.117,2.976,1.68,6.513,1.68,10.609c0,4.096-0.607,7.65-1.822,10.652
			c-1.217,3.012-2.801,5.509-4.752,7.492c-1.95,1.984-4.174,3.443-6.664,4.369c-2.498,0.928-4.993,1.395-7.485,1.395
			c-7.037,0-12.053-3.059-15.06-9.175h-0.193v6.044c0,2.041,0.016,4.334,0.05,6.854c0.031,2.525,0.078,5.032,0.143,7.526
			c0.061,2.492,0.145,4.879,0.238,7.146c0.096,2.273,0.207,4.205,0.334,5.801c-1.786-0.289-3.221-0.435-4.31-0.435
			c-1.082,0-2.518,0.146-4.303,0.435c0.125-1.596,0.24-3.527,0.333-5.801c0.099-2.268,0.178-4.654,0.238-7.146
			c0.071-2.494,0.109-5.001,0.146-7.523c0.029-2.523,0.047-4.816,0.047-6.857V55.696C106.489,53.527,106.47,51.164,106.441,48.605z
			 M52.377,39.657c1.373-3.043,3.18-5.507,5.409-7.397c2.236-1.884,4.744-3.261,7.521-4.128c2.773-0.86,5.54-1.295,8.286-1.295
			c2.807,0,5.586,0.435,8.33,1.295c2.75,0.867,5.235,2.244,7.477,4.128c2.226,1.891,4.033,4.354,5.405,7.397
			c1.38,3.039,2.063,6.735,2.063,11.088c0,4.356-0.683,8.047-2.063,11.086c-1.372,3.043-3.179,5.51-5.405,7.398
			c-2.242,1.886-4.727,3.216-7.477,3.984c-2.744,0.768-5.523,1.152-8.33,1.152c-2.746,0-5.512-0.385-8.286-1.152
			c-2.777-0.769-5.285-2.099-7.521-3.984c-2.229-1.889-4.036-4.355-5.409-7.398c-1.375-3.039-2.06-6.729-2.06-11.086
			C50.317,46.392,51.001,42.695,52.377,39.657z M59.433,58.481c0.476,2.496,1.295,4.719,2.44,6.666
			c1.155,1.951,2.692,3.506,4.611,4.655c1.922,1.151,4.288,1.726,7.107,1.726c2.815,0,5.185-0.574,7.104-1.726
			c1.921-1.149,3.453-2.704,4.61-4.655c1.149-1.947,1.964-4.17,2.446-6.666c0.48-2.494,0.72-5.088,0.72-7.774
			c0-2.685-0.24-5.275-0.72-7.77c-0.482-2.497-1.297-4.713-2.446-6.667c-1.158-1.952-2.689-3.504-4.61-4.654
			c-1.918-1.151-4.288-1.728-7.104-1.728c-2.82,0-5.185,0.576-7.107,1.728c-1.919,1.15-3.457,2.703-4.611,4.654
			c-1.146,1.954-1.964,4.17-2.44,6.667c-0.482,2.494-0.721,5.084-0.721,7.77C58.712,53.394,58.951,55.987,59.433,58.481z
			 M8.351,64.4c0.86,1.184,1.911,2.254,3.153,3.218c1.237,0.957,2.686,1.74,4.34,2.348c1.656,0.608,3.497,0.909,5.532,0.909
			c2.098,0,3.995-0.364,5.68-1.101c1.687-0.738,3.12-1.727,4.295-2.975c1.174-1.246,2.081-2.717,2.719-4.41
			c0.637-1.693,0.954-3.501,0.954-5.421c0-2.938-0.749-5.273-2.243-7.003c-1.499-1.725-3.361-3.163-5.592-4.313
			c-2.226-1.15-4.627-2.208-7.208-3.165c-2.581-0.959-4.987-2.157-7.212-3.598c-2.228-1.44-4.092-3.276-5.587-5.515
			c-1.498-2.235-2.249-5.24-2.249-9.018c0-2.681,0.483-5.127,1.449-7.335c0.968-2.204,2.361-4.107,4.195-5.702
			c1.831-1.601,4.025-2.849,6.579-3.742c2.562-0.899,5.438-1.344,8.635-1.344c3.07,0,5.727,0.371,7.967,1.115
			c2.237,0.746,4.312,1.896,6.234,3.441c-0.575,1.081-1.056,2.236-1.439,3.456c-0.384,1.209-0.768,2.747-1.151,4.604h-1.153
			c-0.319-0.897-0.749-1.872-1.292-2.929c-0.548-1.053-1.282-2.025-2.208-2.923c-0.931-0.893-2.031-1.646-3.312-2.258
			c-1.277-0.603-2.815-0.911-4.603-0.911c-1.792,0-3.438,0.289-4.94,0.865c-1.505,0.576-2.814,1.389-3.932,2.44
			c-1.123,1.056-1.985,2.313-2.594,3.788c-0.608,1.466-0.911,3.061-0.911,4.782c0,3.004,0.746,5.367,2.249,7.09
			c1.493,1.725,3.354,3.18,5.586,4.36c2.226,1.181,4.628,2.236,7.209,3.164c2.579,0.926,4.98,2.058,7.21,3.396
			c2.229,1.344,4.09,3.066,5.592,5.175c1.489,2.109,2.242,4.918,2.242,8.428c0,2.938-0.525,5.717-1.581,8.332
			c-1.048,2.622-2.579,4.905-4.589,6.851c-2.007,1.95-4.465,3.452-7.363,4.502c-2.901,1.052-6.198,1.583-9.896,1.583
			c-3.951,0-7.159-0.525-9.611-1.568c-2.453-1.049-4.512-2.24-6.173-3.576c0.576-1.477,0.972-2.799,1.201-3.986
			c0.222-1.18,0.431-2.701,0.623-4.558h1.147C6.811,62.052,7.493,63.217,8.351,64.4z"/>
		<path fill="#E90089" d="M220.186,16.425c2.889,0,5.23-2.34,5.23-5.229c0-2.895-2.342-5.235-5.23-5.235
			c-2.893,0-5.234,2.34-5.234,5.235C214.951,14.084,217.293,16.425,220.186,16.425z"/>
	</g>
	<g>
		<path fill="#787E80" d="M197.604,82.636c2.639,0,4.836,0.904,6.596,2.708c1.758,1.806,2.639,4.059,2.639,6.759
			c0,2.689-0.881,4.936-2.639,6.732c-1.76,1.799-3.957,2.698-6.596,2.698c-2.635,0-4.838-0.899-6.611-2.698
			c-1.771-1.797-2.658-4.043-2.658-6.732c0-2.7,0.887-4.953,2.658-6.759C192.766,83.54,194.969,82.636,197.604,82.636z
			 M197.604,99.634c2.045,0,3.748-0.715,5.123-2.143c1.367-1.431,2.053-3.227,2.053-5.389c0-2.146-0.689-3.943-2.066-5.395
			c-1.375-1.449-3.076-2.174-5.109-2.174c-2.055,0-3.773,0.719-5.15,2.154c-1.373,1.436-2.062,3.242-2.062,5.414
			c0,2.162,0.689,3.958,2.062,5.389C193.83,98.919,195.549,99.634,197.604,99.634z"/>
		<path fill="#787E80" d="M213.023,82.991v3.164h0.08c1.514-2.348,3.514-3.52,5.984-3.52c2.057,0,3.697,0.658,4.926,1.977
			c1.225,1.318,1.838,3.143,1.838,5.476v11.089h-1.938V90.82c0-4.192-1.648-6.286-4.941-6.286c-2.412,0-4.395,1.298-5.949,3.895
			v12.748h-1.938V82.991H213.023z"/>
		<path fill="#787E80" d="M233.203,73.563v27.613h-1.955V73.563H233.203z"/>
		<path fill="#787E80" d="M240.812,73.563v3.32h-1.955v-3.32H240.812z M240.812,82.991v18.186h-1.955V82.991H240.812z"/>
		<path fill="#787E80" d="M248.088,82.991v3.164h0.08c1.512-2.348,3.512-3.52,5.984-3.52c2.057,0,3.699,0.658,4.926,1.977
			c1.223,1.318,1.838,3.143,1.838,5.476v11.089h-1.938V90.82c0-4.192-1.648-6.286-4.939-6.286c-2.414,0-4.396,1.298-5.951,3.895
			v12.748h-1.939V82.991H248.088z"/>
		<path fill="#787E80" d="M281.492,91.413h-14.33c-0.041,0.316-0.059,0.631-0.059,0.947c0,2.031,0.725,3.75,2.174,5.158
			c1.449,1.41,3.162,2.115,5.139,2.115c2.303,0,4.557-0.901,6.76-2.707v2.194c-2.084,1.608-4.416,2.412-6.998,2.412
			c-2.623,0-4.791-0.91-6.502-2.727c-1.713-1.821-2.568-4.134-2.568-6.939c0-2.662,0.791-4.866,2.367-6.612
			c1.586-1.745,3.574-2.619,5.971-2.619c2.256,0,4.158,0.787,5.713,2.363C280.715,86.573,281.492,88.71,281.492,91.413z
			 M267.42,89.849h11.779c-0.686-3.542-2.602-5.314-5.754-5.314c-1.488,0-2.777,0.465-3.865,1.393
			C268.494,86.855,267.773,88.165,267.42,89.849z"/>
	</g>
</g>
</svg>
